<svg xmlns="http://www.w3.org/2000/svg" viewBox="0 0 34 34" height="34" width="34">
  <path fill="#c536a4" d="M0 0v34h34V0H0zm28.4 22.6c0 3.2-2.6 5.7-5.7 5.7H11.4c-3.2 0-5.7-2.6-5.7-5.7V11.4c0-3.2 2.6-5.7 5.7-5.7h11.3c3.2 0 5.7 2.6 5.7 5.7v11.2zM22.6 8.1H11.4c-1.8 0-3.3 1.5-3.3 3.3v11.3c0 1.8 1.5 3.3 3.3 3.3h11.3c1.8 0 3.3-1.5 3.3-3.3V11.4c-.1-1.8-1.6-3.3-3.4-3.3zM17 22.9c-3.2 0-5.9-2.6-5.9-5.9 0-3.2 2.6-5.9 5.9-5.9 3.2 0 5.9 2.6 5.9 5.9 0 3.2-2.7 5.9-5.9 5.9zm6-10.5c-.8 0-1.4-.6-1.4-1.4 0-.8.6-1.4 1.4-1.4.8 0 1.4.6 1.4 1.4 0 .7-.6 1.4-1.4 1.4zm-6 1.2c-1.9 0-3.4 1.5-3.4 3.4s1.5 3.4 3.4 3.4 3.4-1.5 3.4-3.4-1.5-3.4-3.4-3.4z"/>
</svg>
