<svg xmlns="http://www.w3.org/2000/svg" viewBox="0 0 34 34" height="34" width="34">
  <path fill="#0084b1" d="M0 0v34h34V0H0zm10.4 28c0 .4-.4.8-.8.8H6.3c-.4 0-.8-.4-.8-.8V13.8c0-.4.4-.8.8-.8h3.3c.4 0 .8.4.8.8V28zM8 10.9c-1.5 0-2.8-1.2-2.8-2.8 0-1.6 1.3-2.8 2.9-2.8 1.6 0 2.8 1.3 2.8 2.9-.1 1.5-1.4 2.7-2.9 2.7zM28.9 18v10.5c0 .2-.1.3-.3.3h-4.3c-.2 0-.3-.1-.3-.3v-8.8c0-.8-.3-1.4-.8-1.9s-1.2-.8-2-.8c-1.5 0-2.7 1.3-2.7 2.8v8.8c0 .2-.1.3-.3.3h-4.3c-.2 0-.3-.1-.3-.3V13.4c0-.2.1-.3.3-.3H18c.2 0 .3.1.3.3v1.7c.1-.1.2-.3.3-.4.9-1.2 2.3-2.1 3.9-2.1h.9c3 0 5.5 2.4 5.5 5.4z"/>
</svg>
