<svg xmlns="http://www.w3.org/2000/svg" viewBox="0 0 34 34" height="34" width="34">
  <path fill="#c9353d" d="M0 0h34v34H0V0zm12 28.5v-.4c0-.7 0-1.4.2-2.1.5-2.3 1.1-4.6 1.6-6.9v-.6c-.3-.9-.4-1.7-.2-2.6.2-.9.6-1.6 1.4-2.1 1.2-.6 2.4 0 2.5 1.3 0 .5 0 1-.1 1.5l-.9 3.3c-.3 1.1.3 2.1 1.4 2.3.8.2 1.5 0 2.2-.4.7-.5 1.2-1.1 1.5-1.9.7-1.5 1-3.1.9-4.8-.1-2.1-1.4-3.6-3.5-4.1-.7-.2-1.4-.2-2.1-.2-2.6 0-4.8 1.7-5.6 4.2-.4 1.3-.5 2.7.3 3.9.5.7.5 1.2.3 1.9v.1c-.1.5-.3.6-.8.4-1.1-.5-1.7-1.2-2.1-2.2-1.1-2.6-.3-6 2-8 3-2.6 6.4-3.1 10-1.7 2.4.9 3.9 2.8 4.3 5.4.4 2.5-.2 4.9-1.6 7-.9 1.2-2.1 2.1-3.5 2.4-1.4.3-2.7.2-3.9-.7-.2-.2-.4-.4-.7-.6-.3 1-.5 2-.8 3.1-.3 1-.8 2-1.2 3 5.4 1.7 12.5-.7 15.2-7.5C31.3 15 28 7.7 21.4 5.2c-6.6-2.5-14 1-16.2 7.7-2.4 6.7 1.2 13.3 6.8 15.6z"/>
</svg>
