<svg xmlns="http://www.w3.org/2000/svg" viewBox="0 0 34 34" height="34" width="34">
  <path fill="#15ace5" d="M24 19.9c0 2.3-2.3 4.7-6.2 4.7-3.9 0-5.8-1.5-6.4-3.3-.6-1.8.7-2.3 1.1-2.4.4 0 1.3.1 1.5.8.3.8 1.1 2.3 3 2.5 1.9.2 3.1-.7 3.5-1.6.4-.9-.3-2.1-3.2-2.5-2.9-.4-5.9-1.7-5.9-4.6 0-2.9 3.3-4 6.4-4 3.1 0 4.7 1.8 5.1 2.5.4.9.3 2.3-.7 2.5-1.1.3-1.6-.3-2.4-1.8-.8-1.5-3.7-1.1-4.7-.3-1 .9-.7 2.1 3.3 2.9 4.1.9 5.6 2.4 5.6 4.6zM34 0v34H0V0h34zm-4.8 22.4c0-1.2-.3-2.2-.9-3.2.1-.7.2-1.4.2-2.1 0-6-4.9-10.9-10.9-10.9-.7 0-1.4.1-2.1.2-.9-.5-2-.9-3.2-.9C8.9 5.5 6 8.3 6 11.8c0 1.2.4 2.3.9 3.2-.1.7-.2 1.4-.2 2.1 0 6 4.9 10.9 10.9 10.9.7 0 1.4-.1 2.1-.2.9.5 2 .9 3.2.9 3.5 0 6.3-2.9 6.3-6.3z"/>
</svg>
