<svg xmlns="http://www.w3.org/2000/svg" viewBox="0 0 34 34" height="34" width="34">
  <path fill="#50abf1" d="M0 0v34h34V0H0zm27 12.2v.6c0 8.1-6.6 14.6-14.6 14.6-2.9 0-5.6-.8-7.8-2.3C8.9 25.9 12 23 12 23c-3.9-.3-4.7-3.6-4.7-3.6 1.4.2 2.3-.1 2.3-.1-4.4-1-4.1-5.1-4.1-5.1 1 .6 2.2.7 2.2.7-3.9-3.4-1.5-6.8-1.5-6.8 4.1 5 10.1 5.3 10.5 5.3-.1-.4-.1-.8-.1-1.2 0-2.8 2.3-5.1 5.1-5.1 1.5 0 2.8.6 3.7 1.6.3-.1.5-.2.8-.2 1.5-.5 2.5-1 2.5-1-.3 1.5-2.1 2.8-2.2 2.9 1.4-.1 2.9-.8 2.9-.8-.3 1-2.2 2.4-2.4 2.6z"/>
</svg>
