<svg xmlns="http://www.w3.org/2000/svg" viewBox="0 0 34 34" height="34" width="34">
  <path fill="#1bd741" d="M0 0v34h34V0H0zm17 28.8c-2 0-4-.5-5.8-1.5l-6.1 1.6L6.8 23c-1.1-1.8-1.6-3.9-1.6-6 0-6.5 5.3-11.9 11.9-11.9S28.9 10.4 28.9 17c0 6.5-5.3 11.8-11.9 11.8zm0-21.7c-5.4 0-9.9 4.4-9.9 9.9 0 1.9.5 3.7 1.6 5.3l.3.4-1 3.4 3.5-.9.4.2c1.5.9 3.3 1.4 5.1 1.4 5.4 0 9.9-4.4 9.9-9.9 0-5.4-4.4-9.8-9.9-9.8zM23.1 20l-.1.6c-.1.6-.5 1.2-1.1 1.6-.7.5-1.6.7-2.8.3-3.6-1-5.6-3.4-6.7-4.9-1.1-1.5-1.5-3-1.2-4.2.2-.8.8-1.4 1.2-1.8.2-.2.4-.2.7-.2h.8c.2 0 .3.1.3.2l1.1 2.6c.1.1 0 .3-.1.4l-1 1.1c-.1.1-.1.2 0 .3 1.3 2.5 3.6 3.5 4.3 3.7.1 0 .3 0 .3-.1l1-1.3c.1-.1.3-.2.5-.1l2.6 1.2c.1.2.2.4.2.6z"/>
</svg>
