<svg xmlns="http://www.w3.org/2000/svg" viewBox="0 0 34 34" height="34" width="34">
  <path fill="#dc472e" d="M0 0v34h34V0H0zm19.2 7.1h1.2v5.3c0 .2.2.3.4.2.2-.1.4-.3.6-.5V7h1.2v6.7h-1.2V13l-.4.4c-.2.2-.5.4-.8.4-.5.1-.9-.1-1-.5 0-.2-.1-.3-.1-.5V7.1zm-2.9-.2c1 0 1.8.8 1.8 1.8v3.5c0 1-.8 1.8-1.8 1.8s-1.8-.8-1.8-1.8V8.7c0-1 .8-1.8 1.8-1.8zm-4.8-2.2s.6 2.4.8 3.6c.3-1.1.8-3.6.8-3.6h1.4s-1.1 3.6-1.6 5.2V13.8h-1.3v-3.7-.2C11.1 8.3 10 4.7 10 4.7h1.5zm15.6 21.5c0 1.7-1.3 3-3 3-4.8.1-9.5.1-14.3 0-1.7 0-3-1.4-3-3v-7.4c0-1.7 1.3-3 3-3 4.8-.1 9.5-.1 14.3 0 1.7 0 3 1.4 3 3v7.4zm-14.4-7.1h-1.4v7.8H9.9v-7.8H8.5v-1.3h4.2v1.3zm2.3 1.1h1.2v6.7H15v-.7l-.1.1c-.3.3-.6.5-.9.7-.2.1-.4.1-.6.1-.3 0-.4-.2-.6-.4-.1-.2-.1-.5-.1-.7v-5.6h1.2V25.8c0 .2.2.3.4.2.2-.1.4-.3.6-.5v-5.3zm5.7.5c-.3-.5-.8-.7-1.3-.6-.3.1-.5.2-.7.4-.1.1-.1.2-.1.2v-3h-1.2v9.1h1.2v-.5l.1.1c.3.3.6.5 1 .5.5 0 .9-.2 1-.7.1-.2.1-.5.1-.7v-3.8c.1-.3.1-.7-.1-1zm-1.1 4.9c-.1.3-.3.4-.5.3-.2 0-.3-.1-.4-.3v-4.2s0-.1.1-.1c.1-.1.3-.2.5-.2s.3.1.4.2c0 .1.1.3.1.4v3.6c-.2.1-.2.2-.2.3zm4.6-1.1v.9c0 .3-.2.5-.5.5s-.5-.2-.5-.5v-1.7h2.3V22c0-.2 0-.5-.1-.7-.1-.6-.4-1-1-1.2-.2-.1-.4-.1-.6-.1-.6 0-1.1.1-1.5.6-.3.4-.5.9-.5 1.4v3c0 .3 0 .5.1.8.1.5.4.9.9 1.2.4.2.8.2 1.2.1.6-.1 1.1-.4 1.3-1.1.2-.5.1-1.5.1-1.5h-1.2zm-1.1-2.8c0-.3.2-.5.5-.5s.5.2.5.5v.9H23v-.9zm-7.3-9.4V8.6c0-.3.2-.5.5-.5s.5.2.5.5v3.6c0 .3-.2.5-.5.5-.3.1-.5-.1-.5-.4z"/>
</svg>
